<svg width="75" height="96" viewBox="0 0 75 96" fill="none" xmlns="http://www.w3.org/2000/svg">
<path d="M8.48568e-06 88.6261L0.228329 6.26977C0.234835 4.60288 0.902277 3.00665 2.08422 1.83124C3.26615 0.655843 4.86606 -0.00273043 6.53296 8.50915e-06L68.7303 0.172438C70.3971 0.178951 71.9934 0.846398 73.1688 2.02833C74.3442 3.21027 75.0027 4.81018 75 6.47707L74.7717 88.8334C74.7652 90.5003 74.0977 92.0965 72.9158 93.2719C71.7339 94.4473 70.134 95.1059 68.4671 95.1031L6.26975 94.9307C4.60287 94.9242 3.00664 94.2568 1.83124 93.0748C0.655847 91.8929 -0.00272667 90.293 8.48568e-06 88.6261V88.6261Z" fill="#1E293B"/>
<path d="M4.83988 63.7643L4.98667 10.8181C4.99274 9.25704 5.6178 7.7621 6.72472 6.6613C7.83165 5.5605 9.33004 4.94373 10.8911 4.94633L64.3445 5.09452C65.9056 5.10057 67.4006 5.72562 68.5015 6.83255C69.6023 7.93947 70.2192 9.43787 70.2166 10.999L70.0134 84.2849C70.0073 85.8461 69.3822 87.341 68.2752 88.4418C67.1682 89.5426 65.6698 90.1594 64.1086 90.1567L30.9954 90.0649C24.0417 90.0379 10 90.0649 4.83988 90.0649C4.83986 85.5 4.82848 70.718 4.83988 63.7643Z" fill="#334155"/>
<path d="M50.7671 46.2782H16.2314C15.6818 46.2782 15.1548 46.0147 14.7662 45.5457C14.3776 45.0767 14.1593 44.4406 14.1593 43.7774C14.1593 43.1141 14.3776 42.478 14.7662 42.009C15.1548 41.5401 15.6818 41.2766 16.2314 41.2766H50.7671C51.3167 41.2766 51.8438 41.5401 52.2324 42.009C52.621 42.478 52.8393 43.1141 52.8393 43.7774C52.8393 44.4406 52.621 45.0767 52.2324 45.5457C51.8438 46.0147 51.3167 46.2782 50.7671 46.2782V46.2782Z" fill="#14B8A6"/>
<path d="M25.8296 32.5636H16.6601C15.9968 32.5636 15.3607 32.3001 14.8917 31.8312C14.4228 31.3622 14.1593 30.7261 14.1593 30.0628C14.1593 29.3996 14.4228 28.7635 14.8917 28.2945C15.3607 27.8255 15.9968 27.562 16.6601 27.562H25.8296C26.4929 27.562 27.129 27.8255 27.598 28.2945C28.067 28.7635 28.3304 29.3996 28.3304 30.0628C28.3304 30.7261 28.067 31.3622 27.598 31.8312C27.129 32.3001 26.4929 32.5636 25.8296 32.5636V32.5636Z" fill="#14B8A6"/>
<path d="M58.34 68.2665H16.6601C15.9968 68.2665 15.3607 68.003 14.8917 67.534C14.4228 67.065 14.1593 66.4289 14.1593 65.7657C14.1593 65.1024 14.4228 64.4663 14.8917 63.9973C15.3607 63.5284 15.9968 63.2649 16.6601 63.2649H58.34C59.0032 63.2649 59.6393 63.5284 60.1083 63.9973C60.5773 64.4663 60.8408 65.1024 60.8408 65.7657C60.8408 66.4289 60.5773 67.065 60.1083 67.534C59.6393 68.003 59.0032 68.2665 58.34 68.2665V68.2665Z" fill="#14B8A6"/>
<path d="M54.5528 57.2723H16.4457C15.8393 57.2723 15.2577 57.0088 14.829 56.5398C14.4002 56.0709 14.1593 55.4348 14.1593 54.7715C14.1593 54.1083 14.4002 53.4722 14.829 53.0032C15.2577 52.5342 15.8393 52.2707 16.4457 52.2707H54.5528C55.1592 52.2707 55.7408 52.5342 56.1696 53.0032C56.5984 53.4722 56.8393 54.1083 56.8393 54.7715C56.8393 55.4348 56.5984 56.0709 56.1696 56.5398C55.7408 57.0088 55.1592 57.2723 54.5528 57.2723V57.2723Z" fill="#14B8A6"/>
</svg>
