<svg width="100" height="109" viewBox="0 0 100 109" fill="none" xmlns="http://www.w3.org/2000/svg">
<rect width="100" height="108.772" rx="10" fill="#1E293B"/>
<path d="M32.1676 101.693C31.9293 101.391 31.7629 101.039 31.6811 100.664C31.5993 100.288 31.6042 99.8992 31.6955 99.5259C33.8766 90.3901 33.8765 80.8692 31.6953 71.7335C31.6041 71.3602 31.5992 70.971 31.6811 70.5955C31.7629 70.22 31.9293 69.8682 32.1676 69.5667C32.4009 69.2695 32.6988 69.0293 33.0388 68.8646C33.3788 68.6999 33.752 68.6149 34.1298 68.616H57.4469C58.0427 68.6172 58.6188 68.8297 59.0726 69.2158C59.5263 69.602 59.8283 70.1367 59.9247 70.7246C61.4457 80.6031 61.4457 90.6563 59.9247 100.535C59.8283 101.123 59.5263 101.657 59.0726 102.044C58.6188 102.43 58.0427 102.642 57.4469 102.643H34.1298C33.752 102.645 33.3789 102.56 33.0389 102.395C32.6988 102.23 32.4009 101.99 32.1676 101.693V101.693Z" fill="#334155" fill-opacity="0.8"/>
<path d="M63.9984 61.5874C62.4774 51.7089 62.4774 41.6558 63.9984 31.7773C64.0948 31.1893 64.3967 30.6546 64.8505 30.2685C65.3042 29.8823 65.8803 29.6698 66.4761 29.6687H89.7933C90.1712 29.6675 90.5443 29.7525 90.8844 29.9173C91.2244 30.0821 91.5223 30.3223 91.7555 30.6197C91.9938 30.9211 92.1602 31.2729 92.242 31.6483C92.3238 32.0237 92.3189 32.4129 92.2276 32.7861C90.0465 41.9219 90.0464 51.4428 92.2275 60.5786C92.3188 60.9518 92.3238 61.3409 92.242 61.7163C92.1602 62.0918 91.9938 62.4436 91.7555 62.745C91.5223 63.0423 91.2244 63.2825 90.8844 63.4473C90.5443 63.6122 90.1712 63.6972 89.7933 63.696H66.4761C65.8803 63.6949 65.3042 63.4823 64.8505 63.0962C64.3967 62.71 64.0948 62.1754 63.9984 61.5874V61.5874Z" fill="#334155" fill-opacity="0.8"/>
<path d="M11.3311 52.7523C11.0889 52.4459 10.9197 52.0882 10.8366 51.7066C10.7534 51.3249 10.7584 50.9293 10.8512 50.5499C13.0683 41.2641 13.0682 31.5867 10.851 22.3008C10.7583 21.9214 10.7534 21.5258 10.8366 21.1442C10.9198 20.7626 11.0889 20.4049 11.3311 20.0985C11.5682 19.7964 11.8711 19.5523 12.2167 19.3849C12.5623 19.2174 12.9415 19.131 13.3255 19.1322H37.0257C37.6313 19.1334 38.2168 19.3494 38.678 19.7419C39.1393 20.1344 39.4462 20.6778 39.5442 21.2755C41.0902 31.3163 41.0902 41.5345 39.5442 51.5753C39.4462 52.173 39.1393 52.7164 38.678 53.1089C38.2168 53.5014 37.6313 53.7174 37.0257 53.7186H13.3255C12.9415 53.7198 12.5622 53.6334 12.2166 53.4659C11.871 53.2985 11.5682 53.0544 11.3311 52.7523V52.7523Z" fill="#334155" fill-opacity="0.8"/>
<path d="M32.4522 31.8935H19.9672C19.5021 31.893 19.0561 31.708 18.7272 31.3791C18.3983 31.0502 18.2133 30.6042 18.2128 30.1391V29.3941C18.2133 28.929 18.3983 28.483 18.7272 28.1541C19.0561 27.8252 19.5021 27.6402 19.9672 27.6397H32.4522C32.9174 27.6402 33.3633 27.8252 33.6922 28.1541C34.0211 28.483 34.2061 28.929 34.2066 29.3941V30.1391C34.2061 30.6042 34.0211 31.0502 33.6922 31.3791C33.3633 31.708 32.9174 31.893 32.4522 31.8935Z" fill="white" fill-opacity="0.9"/>
<path d="M32.4522 39.2311H19.9672C19.5021 39.2306 19.0561 39.0456 18.7272 38.7167C18.3983 38.3878 18.2133 37.9419 18.2128 37.4767V36.7317C18.2133 36.2666 18.3983 35.8207 18.7272 35.4918C19.0561 35.1629 19.5021 34.9779 19.9672 34.9774H32.4522C32.9174 34.9779 33.3633 35.1629 33.6922 35.4918C34.0211 35.8207 34.2061 36.2666 34.2066 36.7317V37.4767C34.2061 37.9419 34.0211 38.3878 33.6922 38.7167C33.3633 39.0456 32.9174 39.2306 32.4522 39.2311V39.2311Z" fill="white" fill-opacity="0.9"/>
<path d="M52.6511 79.9763H40.4152C39.9501 79.9758 39.5041 79.7908 39.1752 79.4619C38.8463 79.133 38.6613 78.6871 38.6608 78.222V77.5364C38.6613 77.0712 38.8463 76.6253 39.1752 76.2964C39.5041 75.9675 39.9501 75.7825 40.4152 75.782H52.6511C53.1162 75.7825 53.5622 75.9675 53.8911 76.2964C54.22 76.6253 54.405 77.0712 54.4055 77.5364V78.222C54.405 78.6871 54.22 79.133 53.8911 79.4619C53.5622 79.7908 53.1162 79.9758 52.6511 79.9763V79.9763Z" fill="white" fill-opacity="0.9"/>
<path d="M52.6511 88.6392H40.4152C39.9501 88.6387 39.5041 88.4537 39.1752 88.1248C38.8463 87.7959 38.6613 87.3499 38.6608 86.8848V86.1992C38.6613 85.7341 38.8463 85.2881 39.1752 84.9592C39.5041 84.6303 39.9501 84.4453 40.4152 84.4448H52.6511C53.1162 84.4453 53.5622 84.6303 53.8911 84.9592C54.22 85.2881 54.405 85.7341 54.4055 86.1992V86.8848C54.405 87.3499 54.22 87.7959 53.8911 88.1248C53.5622 88.4537 53.1162 88.6387 52.6511 88.6392V88.6392Z" fill="white" fill-opacity="0.9"/>
<path d="M52.6511 97.302H40.4152C39.9501 97.3015 39.5041 97.1165 39.1752 96.7876C38.8463 96.4587 38.6613 96.0128 38.6608 95.5476V94.8621C38.6613 94.3969 38.8463 93.951 39.1752 93.6221C39.5041 93.2932 39.9501 93.1082 40.4152 93.1077H52.6511C53.1162 93.1082 53.5622 93.2932 53.8911 93.6221C54.22 93.951 54.405 94.3969 54.4055 94.8621V95.5476C54.405 96.0128 54.22 96.4587 53.8911 96.7876C53.5622 97.1165 53.1162 97.3015 52.6511 97.302V97.302Z" fill="white" fill-opacity="0.9"/>
<path d="M83.0437 44.8215H70.8077C70.3426 44.821 69.8967 44.636 69.5678 44.3071C69.2389 43.9782 69.0539 43.5323 69.0533 43.0671V42.3815C69.0539 41.9164 69.2389 41.4704 69.5678 41.1415C69.8967 40.8126 70.3426 40.6276 70.8077 40.6271H83.0437C83.5089 40.6276 83.9548 40.8126 84.2837 41.1415C84.6126 41.4704 84.7976 41.9164 84.7981 42.3815V43.0671C84.7976 43.5323 84.6126 43.9782 84.2837 44.3071C83.9548 44.636 83.5089 44.821 83.0437 44.8215Z" fill="white" fill-opacity="0.9"/>
<path d="M99.6228 11.9883H0.377221C0.276444 11.9875 0.180514 11.9717 0.110001 11.9444C0.0394877 11.9171 0 11.8803 0 11.8421C0 11.8039 0.0394877 11.7671 0.110001 11.7398C0.180514 11.7125 0.276444 11.6967 0.377221 11.6959H99.6228C99.7236 11.6967 99.8195 11.7125 99.89 11.7398C99.9605 11.7671 100 11.8039 100 11.8421C100 11.8803 99.9605 11.9171 99.89 11.9444C99.8195 11.9717 99.7236 11.9875 99.6228 11.9883Z" fill="#2DD4BF" fill-opacity="0.5"/>
<path d="M10.2339 8.30443C11.6873 8.30443 12.8655 7.09997 12.8655 5.6142C12.8655 4.12843 11.6873 2.92398 10.2339 2.92398C8.78055 2.92398 7.60236 4.12843 7.60236 5.6142C7.60236 7.09997 8.78055 8.30443 10.2339 8.30443Z" fill="#2DD4BF" fill-opacity="0.8"/>
<path d="M17.8362 8.30443C19.2896 8.30443 20.4678 7.09997 20.4678 5.6142C20.4678 4.12843 19.2896 2.92398 17.8362 2.92398C16.3828 2.92398 15.2047 4.12843 15.2047 5.6142C15.2047 7.09997 16.3828 8.30443 17.8362 8.30443Z" fill="#2DD4BF" fill-opacity="0.8"/>
<path d="M25.4386 8.30443C26.892 8.30443 28.0702 7.09997 28.0702 5.6142C28.0702 4.12843 26.892 2.92398 25.4386 2.92398C23.9852 2.92398 22.807 4.12843 22.807 5.6142C22.807 7.09997 23.9852 8.30443 25.4386 8.30443Z" fill="#2DD4BF" fill-opacity="0.8"/>
</svg>
