<svg width="40" height="40" viewBox="0 0 40 40" fill="none" xmlns="http://www.w3.org/2000/svg">
<circle cx="20" cy="20" r="20" fill="#1E293B"/>
<path d="M8 29L20 5L32 29H8ZM10.8364 27.1053H29.1636L20 8.78947L10.8364 27.1053ZM20.1091 25.3053C20.3455 25.3053 20.5409 25.2158 20.6955 25.0368C20.85 24.8579 20.9273 24.6316 20.9273 24.3579C20.9273 24.0842 20.85 23.8579 20.6955 23.6789C20.5409 23.5 20.3455 23.4105 20.1091 23.4105C19.8727 23.4105 19.6773 23.5 19.5227 23.6789C19.3682 23.8579 19.2909 24.0842 19.2909 24.3579C19.2909 24.6316 19.3682 24.8579 19.5227 25.0368C19.6773 25.2158 19.8727 25.3053 20.1091 25.3053ZM19.2909 21.8H20.9273V14.7263H19.2909V21.8Z" fill="#14B8A6"/>
</svg>
